<svg width="552.1849487304687px" height="203.38750610351562px" xmlns="http://www.w3.org/2000/svg" viewBox="-26.092474365234352 -26.69375305175781 552.1849487304687 203.38750610351562" style="background: rgba(0, 0, 0, 0);" preserveAspectRatio="xMidYMid"><defs><filter id="editing-extrude-glow"><feFlood flood-color="#333333" result="flood-1"></feFlood><feMorphology operator="erode" radius="1" in="SourceAlpha" result="erode"></feMorphology><feComposite operator="in" in="flood-1" in2="erode" result="comp1"></feComposite><feConvolveMatrix order="3,3" divisor="1" in="comp1" result="convolve" kernelMatrix="0 0 0 1 1 1 0 0 0"></feConvolveMatrix><feOffset dx="-3" dy="0" in="convolve" result="extrude"></feOffset><feComposite operator="in" in="flood-1" in2="extrude" result="comp-extrude"></feComposite><feFlood flood-color="#000000" result="flood-2"></feFlood><feComposite operator="in" in="flood-2" in2="SourceAlpha" result="comp2"></feComposite><feMorphology operator="dilate" radius="1" in="comp2" result="dilate"></feMorphology><feOffset dx="-4.5" dy="0" in="dilate" result="offset"></feOffset><feGaussianBlur in="offset" stdDeviation="5.8" result="blur"></feGaussianBlur><feComponentTransfer in="blur" result="shadow"><feFuncA type="linear" slope="0.8" intercept="-0.2"></feFuncA></feComponentTransfer><feMerge><feMergeNode in="shadow"></feMergeNode><feMergeNode in="comp-extrude"></feMergeNode><feMergeNode in="SourceGraphic"></feMergeNode></feMerge></filter></defs><g filter="url(#editing-extrude-glow)"><g transform="translate(58.75749754905701, 117.91999816894531)"><path d="M11.83 0L-1.51 0L19.49-76.56L43.73-76.56L49.07-32.83L70.64-76.56L90.94-76.56L93.03-19.26L93.03-19.26Q93.50-7.89 99.06-4.41L99.06-4.41L99.06-4.41Q97.79-2.09 94.08 0.12L94.08 0.12L94.08 0.12Q90.36 2.32 85.43 2.32L85.43 2.32L85.43 2.32Q80.50 2.32 77.60 0.93L77.60 0.93L77.60 0.93Q74.70-0.46 73.08-2.78L73.08-2.78L73.08-2.78Q70.18-6.96 70.18-14.96L70.18-14.96L70.18-50.81L47.33 0L32.94 0L24.82-52.08L11.83 0ZM129.34 2.32L129.34 2.32L129.34 2.32Q103.82 2.32 103.82-21.69L103.82-21.69L103.82-21.69Q103.82-38.74 113.22-49.76L113.22-49.76L113.22-49.76Q123.19-61.48 140.48-61.48L140.48-61.48L140.48-61.48Q153.00-61.48 159.38-55.68L159.38-55.68L159.38-55.68Q165.76-49.88 165.76-37.70L165.76-37.70L165.76-37.70Q165.76-19.14 155.79-8.35L155.79-8.35L155.79-8.35Q146.04 2.32 129.34 2.32ZM132.36-48.14L132.36-48.14L132.36-48.14Q130.96-45.01 129.86-40.31L129.86-40.31L129.86-40.31Q128.76-35.61 127.37-28.19L127.37-28.19L127.37-28.19Q125.98-20.76 125.98-11.60L125.98-11.60L125.98-11.60Q125.98-8.58 126.96-6.61L126.96-6.61L126.96-6.61Q127.95-4.64 130.62-4.64L130.62-4.64L130.62-4.64Q133.28-4.64 134.97-5.92L134.97-5.92L134.97-5.92Q136.65-7.19 137.92-10.21L137.92-10.21L137.92-10.21Q140.24-15.54 142.10-25.46L142.10-25.46L142.10-25.46Q143.96-35.38 144.13-39.67L144.13-39.67L144.13-39.67Q144.30-43.96 144.30-47.15L144.30-47.15L144.30-47.15Q144.30-50.34 143.38-52.43L143.38-52.43L143.38-52.43Q142.45-54.52 139.84-54.52L139.84-54.52L139.84-54.52Q137.23-54.52 135.49-52.90L135.49-52.90L135.49-52.90Q133.75-51.27 132.36-48.14ZM230.96-12.88L230.96-12.88L230.96-12.88Q230.96-7.77 236.18-6.26L236.18-6.26L236.18-6.26Q234.90-1.97 229.91 0.35L229.91 0.35L229.91 0.35Q225.74 2.32 221.15 2.32L221.15 2.32L221.15 2.32Q216.57 2.32 214.19 1.10L214.19 1.10L214.19 1.10Q211.82-0.12 210.54-2.09L210.54-2.09L210.54-2.09Q208.45-5.10 208.45-10.79L208.45-10.79L208.45-10.79Q208.45-14.15 210.31-23.43L210.31-23.43L211.93-32.25L211.93-32.25Q213.90-42.34 213.90-46.05L213.90-46.05L213.90-46.05Q213.90-52.55 210.31-52.55L210.31-52.55L210.31-52.55Q205.78-52.55 202.88-45.94L202.88-45.94L202.88-45.94Q201.72-43.38 200.91-39.56L200.91-39.56L193.02 0L169.71 2.32L186.06-81.20L209.38-83.52L208.45-78.88L208.45-78.88Q205.20-61.02 202.42-54.98L202.42-54.98L202.42-54.98Q208.92-61.48 220.86-61.48L220.86-61.48L220.86-61.48Q233.51-61.48 235.83-53.13L235.83-53.13L235.83-53.13Q236.64-50.46 236.64-48.14L236.64-48.14L236.64-48.14Q236.64-45.82 236.47-44.02L236.47-44.02L236.47-44.02Q236.29-42.22 235.71-38.98L235.71-38.98L234.20-30.62L231.54-17.52L231.54-17.52Q230.96-14.85 230.96-12.88ZM250.62-3.48L250.62-3.48L250.62-3.48Q247.89-6.50 246.67-11.25L246.67-11.25L246.67-11.25Q245.46-16.01 245.46-23.78L245.46-23.78L245.46-23.78Q245.46-31.55 248.12-38.63L248.12-38.63L248.12-38.63Q250.79-45.70 255.66-50.81L255.66-50.81L255.66-50.81Q265.64-61.48 282.11-61.48L282.11-61.48L282.11-61.48Q288.03-61.48 292.32-59.51L292.32-59.51L312.16-61.48L303.57-16.24L303.57-16.24Q303.22-14.85 303.22-12.30L303.22-12.30L303.22-12.30Q303.22-9.74 304.79-8.12L304.79-8.12L304.79-8.12Q306.36-6.50 308.68-6.26L308.68-6.26L308.68-6.26Q307.52-2.32 303.28 0L303.28 0L303.28 0Q299.05 2.32 294.29 2.32L294.29 2.32L294.29 2.32Q289.54 2.32 286.35 0.52L286.35 0.52L286.35 0.52Q283.16-1.28 282.23-4.29L282.23-4.29L282.23-4.29Q280.37-1.39 276.43 0.46L276.43 0.46L276.43 0.46Q272.48 2.32 267.21 2.32L267.21 2.32L267.21 2.32Q261.93 2.32 257.64 0.93L257.64 0.93L257.64 0.93Q253.34-0.46 250.62-3.48ZM275.09-50.58L275.09-50.58L275.09-50.58Q273.76-48.49 272.60-44.95L272.60-44.95L272.60-44.95Q271.44-41.41 269.53-31.96L269.53-31.96L269.53-31.96Q267.61-22.50 267.61-15.78L267.61-15.78L267.61-15.78Q267.61-9.05 268.66-7.08L268.66-7.08L268.66-7.08Q269.70-5.10 271.56-5.10L271.56-5.10L271.56-5.10Q275.27-5.10 277.99-8.64L277.99-8.64L277.99-8.64Q280.72-12.18 281.76-18.44L281.76-18.44L287.91-52.43L287.91-52.43Q285.48-54.52 282.63-54.52L282.63-54.52L282.63-54.52Q279.79-54.52 278.11-53.59L278.11-53.59L278.11-53.59Q276.43-52.66 275.09-50.58ZM367.49 2.32L367.49 2.32L367.49 2.32Q353.45 2.32 353.45-8.58L353.45-8.58L353.45-8.58Q353.57-11.60 354.50-16.70L354.50-16.70L356.58-27.38L356.58-27.38Q359.72-42.46 359.72-45.82L359.72-45.82L359.72-45.82Q359.72-52.55 355.77-52.55L355.77-52.55L355.77-52.55Q349.16-52.55 345.68-35.26L345.68-35.26L338.84 0L315.52 2.32L327.58-59.28L346.61-61.48L344.75-50.11L344.75-50.11Q350.20-61.48 366.91-61.48L366.91-61.48L366.91-61.48Q375.03-61.48 378.45-58.06L378.45-58.06L378.45-58.06Q381.87-54.64 381.87-46.98L381.87-46.98L381.87-46.98Q381.87-39.79 378.16-22.97L378.16-22.97L378.16-22.97Q376.42-15.43 376.42-12.59L376.42-12.59L376.42-12.59Q376.42-9.74 377.99-8.12L377.99-8.12L377.99-8.12Q379.55-6.50 381.87-6.26L381.87-6.26L381.87-6.26Q380.71-2.32 376.71 0L376.71 0L376.71 0Q372.71 2.32 367.49 2.32Z" fill="#eb6c6c"></path></g></g><style>text {
  font-size: 64px;
  font-family: Arial Black;
  dominant-baseline: central;
  text-anchor: middle;
}</style></svg>